<svg xmlns="http://www.w3.org/2000/svg" viewBox="0 0 64 80" x="0px" y="0px" fill="currentColor">
    <g>
        <path d="M14,15a1,1,0,0,1,1-1H46.505A5.522,5.522,0,0,0,42,12a6.525,6.525,0,0,0-2.73.583,1,1,0,0,1-1.4-.687,4.993,4.993,0,0,0-9.132-1.505,1,1,0,0,1-1.834-.336,4.994,4.994,0,0,0-9.119-1.741,1,1,0,0,1-1.335.332A5,5,0,0,0,9,13a4.948,4.948,0,0,0,.528,2.226,1,1,0,0,1-.452,1.344A5.5,5.5,0,1,0,14,26.4Zm9-4h2v2H23ZM20,8h2v2H20ZM10,24H8V22h2Zm2-4H10V18h2Z"/>
        <path d="M54,35V26a2,2,0,0,0-2-2H49V37h3A2,2,0,0,0,54,35Z"/>
        <rect x="20" y="16" width="23" height="11"/>
        <path d="M20,50a3,3,0,0,0,3,3H40a3,3,0,0,0,3-3V29H20ZM38,39h2v2H38Zm0,6h2v2H38Zm-4-3h2v2H34Zm-8-8h2v2H26Zm-4-3h2v2H22Zm0,6h2v2H22Z"/>
        <path d="M50,56H48a1,1,0,0,1-1-1V16H45V50a5.006,5.006,0,0,1-5,5H23a5.006,5.006,0,0,1-5-5V16H16V55a1,1,0,0,1-1,1H13a1,1,0,0,0,0,2H50a1,1,0,0,0,0-2Z"/>
        <path d="M53,20H49v2h3a4,4,0,0,1,4,4v9a4,4,0,0,1-4,4H49v2h4a5.006,5.006,0,0,0,5-5V25A5.006,5.006,0,0,0,53,20Z"/>
    </g>
</svg>