<svg xmlns="http://www.w3.org/2000/svg" 
    xmlns:xlink="http://www.w3.org/1999/xlink" 
    xmlns:sketch="http://www.bohemiancoding.com/sketch/ns" viewBox="0 0 47 46.25" version="1.1" x="0px" y="0px">
    <title>chili</title>
    <description>Created with Sketch (http://www.bohemiancoding.com/sketch)</description>
    <g stroke="none" stroke-width="1" fill-rule="evenodd" sketch:type="MSPage">
        <path d="M30.2694514,8.13866255 C30.7035517,5.64356268 31.8593983,0.423046861 33.9624326,0.177423828 C36.7307828,-0.145904198 36.3076822,2.01770832 35.8822102,2.53171472 C35.4567381,3.0457211 35.0494474,3.18090283 34.0426746,3.98918284 C33.2389152,4.63447504 32.3423253,7.57192034 32.013417,8.73033975 C36.4980024,10.8054561 34.5153516,15.347811 34.1119792,16.3092448 C33.6586927,17.3896483 27.8555407,24.8334955 22.3676758,26.7058912 C16.879811,28.5782869 12.0918782,29.2903651 7.44344065,28.5480956 C5.44673086,28.229258 3.34104656,27.5405703 2.11840817,26.7058905 C0.55531027,25.6387835 0.0839029904,24.1617831 0.318929037,24.0109042 C0.469355225,23.9143356 1.46736667,25.2954901 4.51285813,25.1571444 C5.83172139,25.0972332 9.56858942,24.886032 12.629287,22.8878316 C16.6362884,20.2718295 19.4536154,16.7024726 20.5214844,14.7467448 C21.3805521,13.1734221 23.0597336,6.54313164 30.0362962,8.08479817 C30.115215,8.10223749 30.1929279,8.12019643 30.2694514,8.13866255 Z" fill="currentColor" sketch:type="MSShapeGroup"/>
    </g>
</svg>