<svg xmlns="http://www.w3.org/2000/svg" 
    xmlns:xlink="http://www.w3.org/1999/xlink" version="1.1" x="0px" y="0px" viewBox="0 0 66 82.5" enable-background="new 0 0 66 66" xml:space="preserve" fill="currentColor">
    <g>
        <g>
            <g>
                <g>
                    <path d="M59.7654,1H6.2346C4.1427,1,2.4328,2.7099,2.4328,4.8209v42.5744c0,2.111,1.7099,3.8209,3.8018,3.8209h53.5308      c2.1015,0,3.8018-1.7099,3.8018-3.8209V4.8209C63.5672,2.7099,61.8669,1,59.7654,1z M33,48.0734      c-1.089,0-1.9773-0.8884-1.9773-1.9774c0-1.0889,0.8884-1.9773,1.9773-1.9773c1.089,0,1.9773,0.8884,1.9773,1.9773      C34.9773,47.185,34.089,48.0734,33,48.0734z M58.3517,41.4441H7.6484V6.2537h50.7033V41.4441z"/>
                </g>
            </g>
        </g>
        <g>
            <g>
                <path d="M48.9331,62.7647v1.2801c0,0.5254-0.4299,0.9552-0.9552,0.9552H18.4901c-0.5254,0-0.9552-0.4298-0.9552-0.9552v-1.2801     c0-2.0919,1.6908-3.7826,3.7636-3.7826h0.9935l2.1206-5.8554H42.046l2.1301,5.8554h0.9934     C47.2424,58.982,48.9331,60.6728,48.9331,62.7647z"/>
            </g>
        </g>
        <g>
            <g>
                <path d="M25.2531,20.8878l-5.1869,2.9611l5.1773,2.9517c2.1341,1.2194,0.3854,4.5721-1.8913,3.3242l-7.3457-4.1934     c-0.7547-0.4298-1.2132-1.2036-1.2132-2.0729c0-0.8596,0.449-1.643,1.2036-2.0728l7.3552-4.2126     C25.6016,16.2981,27.3841,19.6845,25.2531,20.8878z"/>
            </g>
            <g>
                <path d="M38.1391,15.8538l-6.7057,17.3659c-0.8983,2.3854-4.4684,0.9631-3.563-1.3755l6.7057-17.366     C35.4586,12.135,39.06,13.4743,38.1391,15.8538z"/>
            </g>
            <g>
                <path d="M51.2066,23.8584c0,0.8788-0.4585,1.6525-1.2131,2.0824l-7.3457,4.1552c-2.1981,1.2457-4.0719-2.1167-1.8818-3.3337     l5.1487-2.9135l-5.1487-2.9229c-0.6018-0.3343-0.9743-0.9743-0.9743-1.6621c0-1.0507,0.8597-1.9104,1.9104-1.9104     c0.3344,0,0.6591,0.0859,0.9457,0.2579l7.3457,4.1743C50.7576,22.2155,51.2066,22.9893,51.2066,23.8584z"/>
            </g>
        </g>
    </g>
</svg>