<svg xmlns="http://www.w3.org/2000/svg" 
    xmlns:xlink="http://www.w3.org/1999/xlink" version="1.1" x="0px" y="0px" viewBox="0 0 64 80" enable-background="new 0 0 64 64" xml:space="preserve" fill="currentColor">
    <g>
        <path d="M39.845,15.839c0.896,1.6,2.926,2.176,4.531,1.282c1.607-0.892,2.182-2.913,1.287-4.514   c-0.186-0.329-0.42-0.612-0.688-0.851l-5.498,3.052C39.542,15.161,39.661,15.511,39.845,15.839z"/>
        <path d="M34.62,7.109l0.473-0.074l3.561,6.566l5.545-3.02l-2.896-5.694l0.365-0.303c0.309-1.072,0.42-2.307-0.016-3.345   c-0.516-1.229-2.066-1.353-3.26-1.175c-0.479,0.071-1.26,0.354-1.619,0.694c-0.406,0.383-0.42,0.874-0.441,1.396   c-0.268-0.043-0.49-0.271-0.764-0.346c-0.354-0.1-0.881-0.096-1.232-0.012c-0.996,0.239-1.781,0.714-1.918,1.771   c-0.115,0.867,0,1.81,0.352,2.587C33.157,7.019,33.804,7.084,34.62,7.109z"/>
        <path d="M49.563,19.706c0,0-0.773-0.939-3.129-0.939c-3.975,0.003-8.014,6.202-8.014,6.202l-7.355,0.337   c-1.613,0.073-2.861,1.44-2.787,3.053c0.01,0.22,0.049,0.434,0.104,0.637c-0.195-0.021,0.699,1.516,0.779,1.319   c0.557,0.544,1.326,0.872,2.17,0.832l9.205-0.422l2.865-2.217c2.934,4.853,3.307,8.518,3.201,10.148L44.05,47.99l0.701,13.242   C44.835,62.792,46.124,64,47.669,64c0.051,0,0.104-0.002,0.156-0.005c1.613-0.086,2.85-1.461,2.764-3.074L49.968,49.17l4.709-7.786   l1.041-1.608C55.774,39.296,56.616,27.499,49.563,19.706z"/>
        <path d="M17.77,26.69c2.093,0.512,5.988,1.457,7.922-2.828l-1.86-0.839c-1.148,2.54-3.122,2.283-5.579,1.684   c-1.771-0.431-3.441-0.841-4.706,0.401c-0.032,0.031-0.071,0.047-0.117,0.047v2.041c0.583,0,1.133-0.224,1.547-0.631   C15.364,26.185,16.043,26.269,17.77,26.69z"/>
        <circle cx="16.063" cy="19.64" r="0.873"/>
        <circle cx="17.585" cy="22.305" r="0.649"/>
        <circle cx="22.003" cy="21.844" r="0.571"/>
        <circle cx="23.28" cy="18.935" r="0.705"/>
        <circle cx="20.542" cy="17.049" r="0.876"/>
        <circle cx="17.585" cy="15.197" r="0.876"/>
        <polygon points="8.97,63.058 13.124,63.058 13.124,51.074 24.699,51.074 24.699,63.058 28.851,63.058 28.851,41.384 8.97,41.384     "/>
        <path d="M26.946,30.641l-1.063-1.743c-0.086,0.053-8.704,5.171-16.54,0.019l-1.121,1.706c3.047,2.002,6.146,2.669,8.924,2.669   C22.516,33.291,26.687,30.8,26.946,30.641z"/>
    </g>
</svg>