<svg xmlns="http://www.w3.org/2000/svg" 
  xmlns:xlink="http://www.w3.org/1999/xlink" xml:space="preserve" version="1.1" style="shape-rendering:geometricPrecision;text-rendering:geometricPrecision;image-rendering:optimizeQuality;" viewBox="0 0 284 377.5" x="0px" y="0px" fill-rule="evenodd" clip-rule="evenodd">
  <defs>
    <style type="text/css">
   
    .fil0 {fill:currentColor}
   
    </style>
  </defs>
  <g>
    <path class="fil0" d="M136 0c76,0 137,61 137,136 0,2 0,4 0,5 -3,1 -6,1 -8,3l0 -8c0,-2 0,-5 -1,-6 -3,-68 -59,-122 -128,-122 -70,0 -128,58 -128,128 0,71 58,128 128,128 10,0 20,-1 30,-3 0,3 2,5 3,8 -11,2 -22,4 -33,4 -75,0 -136,-61 -136,-137 0,-75 61,-136 136,-136zm74 144l0 59c0,2 4,2 4,0l0 -78c0,-16 20,-16 20,0l0 76c0,3 5,3 5,0l0 -65c0,-16 20,-16 20,0l0 68c0,3 4,3 4,0l0 -44c0,-17 21,-17 21,0 0,44 0,50 0,95 0,58 -103,69 -116,-7l-8 -51c-3,-16 20,-19 22,-3l5 34c0,2 3,2 3,0l0 -33 0 -17 0 -34c0,-16 20,-16 20,0zm-50 -8c0,13 -10,24 -24,24 -13,0 -23,-11 -23,-24 0,-13 10,-23 23,-23 14,0 24,10 24,23zm-24 120c-66,0 -119,-54 -119,-120 0,-66 53,-119 119,-119 61,0 110,44 119,102 -5,-2 -11,-1 -15,1 -4,-19 -32,-18 -32,5l0 3c-9,-6 -24,-1 -24,16l0 39c-11,-11 -33,-4 -30,15l9 51c0,1 0,3 0,4 -8,2 -17,3 -27,3zm-15 -230l8 62c2,0 5,0 7,0 3,0 5,0 8,0l7 -62c-5,-1 -10,-1 -15,-1 -5,0 -10,0 -15,1zm15 151c-22,0 -40,-18 -40,-41 0,-22 18,-40 40,-40 23,0 41,18 41,40 0,23 -18,41 -41,41zm0 -73c-17,1 -31,14 -32,32 1,18 14,32 32,32 19,0 32,-14 32,-32 0,-17 -14,-31 -32,-32z"/>
  </g>
</svg>