<svg xmlns="http://www.w3.org/2000/svg" 
    xmlns:xlink="http://www.w3.org/1999/xlink" version="1.1" x="0px" y="0px" viewBox="0 0 100 125" style="enable-background:new 0 0 100 100;" xml:space="preserve" fill="currentColor">
    <path d="M98.6,27.4c0.3-0.8,0.4-1.4,0.3-1.7c-0.5-1.3-5.6-2.8-8.2-4.3c-1.5-0.9-2.1-2.1-2.2-2.9c-0.2-1-0.7-1.9-1.4-2.6  c-3.2-2.9-9.1-2.4-10.7-2.4c-1.8,0-5.4,1.8-6.6,3.1c-1.3,1.3-6.6,6.4-6.6,6.4C60.1,26,52.4,29.4,48,30.6c-4.4,1.2-24.2,2.4-28.6,3.7  c-1.3,0.4-2.3,1.2-3.1,2.3c0-0.2,0.1-0.3,0.1-0.3s-3.7,1.2-4.8,3.2c0,0-1.7,2-1.5,6.6c0.2,4.6-1.2,12.4-1.2,12.4s2.7-4.9,4.5-10.4  c0,0.4-0.1,0.8-0.1,1.2c-0.7,8-4.8,13.6-8.3,16C1.3,67.8,1,69.9,1,69.9c2,3.1,1.9,14,2.7,14.6C4.6,85.2,6.1,85,9.5,85  c3.4,0,3.9-1.5,3.7-2.9c-0.2-1.4-2.4-1.7-2.4-1.7c-2.4-0.2-3.7-3.1-3.7-3.1c1.4,1.4,6,2,8,1c2-1,5.4-7.3,5.4-7.3  c-0.3,2.4-1.4,4.8-1.4,4.8c1.7-0.2,4.1-2.7,4.1-2.7c1.5-3.1,1-4.4,2.7-7.8c1.7-3.4,13.3-2,16.7-1.7c3.4,0.3,6.5,5.1,6.5,5.1  c0.5-1.5,2.7-3.2,2.7-3.2c-3.6,7.8-1.2,12.4-1.2,12.4c-0.5-1,0.7-3.4,0.7-3.4l1.5-3.4c0,0,0.9,1.7-0.5,5.1c-1.4,3.4,0.5,7.1,0.5,7.1  s2.2-1.2,2-0.5c-0.2,0.7-2,2.6-2,2.6s2,0.7,4.4,0.7c2.4,0,4.4-1.4,4.4-1.4c3.4,3.6,7.3,1.4,8.3,0.9c1-0.5,0.9-3.2-1.4-3.4  c-2.2-0.2-2.2-4.3-2.2-4.3s-0.2-4.8-0.2-7.8c0-2.6,2.4-6.9,3.7-8.7c-1.8,4.3-2.3,8-2.3,8s1.2,2,1.5,2.9c0.3,0.9,0.2,2.6,0.2,2.6  s1.5-2.9,1.4-3.9c-0.2-1-1-3.2-1-3.2s1.5,2.2,2.2,3.1c0.7,0.9,0.9,4.1,0.9,4.1s2-3.1,0.7-5.4c-1.4-2.4-1.2-5.1-1.2-5.1  s0,1.5,1.5,3.2s3.2,4.8,3.2,4.8s1.5-1.5-0.3-4.6c-1.9-3.1-1-6.6-1-6.6c0.3,4.8,3.1,6.1,3.1,6.1s-0.9-4.3,0-7.1  c0.9-2.9-0.2-7.3-0.2-7.3c-3.4,3.6-6,3.7-6,3.7c-4.8,2-6.8-1.4-6.8-1.4L64,50.6c-1.3-3.3-1-5.4,0.3-8.9c1.3-3.6-0.3-7.4,2.6-8.9  c2.8-1.5,4.9-7.7,4.9-7.7l-1,5.1c0,0-2.3,4.3-3.1,5.6c-0.8,1.3-0.8,6.4-0.8,6.4s-1.5,4.2-1.3,5.1c0.5,2.5,1.3,4.6,2.3,6.1  c1,1.5,5.6,2,9.4-2c3.8-4.1,2.8-7.1,4.1-8.9c1.3-1.8,0-6.9,0-6.9L80.1,33c1.5-3.3,1-9.7,1-9.7c1.5,3.3,1.3,9.2,1.3,9.2  c4.6,0.8,11.7,0.8,12.8,0.3c0.6-0.3,2.2-2.6,3.1-4.5c-0.5-0.3-1.2-1-1-2.4C97.2,25.9,97.3,26.7,98.6,27.4z M87.6,21.9  c-0.5,1-2.4-0.2-2.4-0.2l1.9-2.6C88.4,20.7,87.6,21.9,87.6,21.9z"/>
</svg>