<svg xmlns="http://www.w3.org/2000/svg" 
    xmlns:xlink="http://www.w3.org/1999/xlink" version="1.1" x="0px" y="0px" viewBox="0 0 221.835 296.47749999999996" style="enable-background:new 0 0 221.835 237.182;" xml:space="preserve" fill="currentColor">
    <g>
        <path d="M22.963,224.818c0,6.83,5.537,12.363,12.363,12.363c6.828,0,12.365-5.533,12.365-12.363v-90.271h4.635v90.271   c0,6.83,5.537,12.363,12.363,12.363c6.828,0,12.365-5.533,12.365-12.363V74.864c0.592,1.215,1.189,2.609,1.778,4.234   c2.818,7.811,5.189,20.63,5.18,40.637c0,5.516-0.176,11.575-0.563,18.226c-0.256,4.412,3.111,8.195,7.523,8.453   c0.158,0.009,0.315,0.014,0.471,0.014c0.228,0,0.452-0.014,0.675-0.033c0.96-4.552,3.713-8.444,7.48-10.914   c0.275-5.616,0.413-10.869,0.415-15.745c-0.041-30.181-4.862-46.886-11.435-56.929c-3.285-4.988-7.128-8.184-10.679-9.955   c-3.383-1.707-6.36-2.104-8.168-2.133c-0.135-0.007-0.269-0.021-0.406-0.021H30.691c-0.139,0-0.274,0.014-0.412,0.021   c-1.809,0.028-4.785,0.426-8.167,2.132c-5.379,2.667-11.179,8.501-15.235,18.841C2.77,82.071,0.012,97.078,0,119.738   c0,5.854,0.185,12.223,0.594,19.157c0.249,4.251,3.775,7.531,7.98,7.531c0.158,0,0.316-0.004,0.476-0.014   c4.41-0.26,7.776-4.045,7.518-8.456c-0.392-6.649-0.569-12.704-0.567-18.218c-0.035-24.215,3.496-37.819,6.963-44.92V224.818z"/>
        <circle cx="50.01" cy="22.5" r="22.5"/>
        <path d="M141.959,226.924c0,5.523,4.476,10,10,10c5.521,0,10-4.477,10-10V177.38c-7.705-0.097-14.383-0.855-20-1.898V226.924z"/>
        <path d="M165.293,226.924c0,5.523,4.475,10,10,10c5.52,0,10-4.477,10-10v-51.442c-5.617,1.042-12.295,1.801-20,1.898V226.924z"/>
        <ellipse transform="matrix(0.2268 -0.9739 0.9739 0.2268 96.586 183.1256)" cx="163.626" cy="30.732" rx="21.496" ry="21.495"/>
        <path d="M118.651,135.55c4.248-30.238,12.22-46.262,18.836-54.58l-12.605,61.955c0.965,2.156,1.513,4.537,1.513,7.047   c0,4.989-2.132,9.479-5.519,12.642l-0.008,0.037l0.761-0.65l1.645,0.6c3.414,1.245,6.417,3.893,8.607,7.541   c7.283,2.194,17.925,4.338,31.744,4.338c25.265,0,39.929-7.158,42.801-8.703c0.348-0.187,0.533-0.297,0.533-0.297l-17.191-84.493   c0.081,0.101,0.159,0.189,0.24,0.292c6.715,8.586,14.767,25.152,18.883,56.378c0.429,3.27,3.223,5.65,6.435,5.65   c0.283,0,0.569-0.018,0.857-0.056c3.558-0.469,6.065-3.734,5.596-7.294c-4.611-34.937-14.097-54.119-23.238-64.772   c-8.436-9.875-16.55-12.017-18.718-12.363c-1.861-0.46-8.729-2.075-16.196-2.098c-7.471,0.023-14.341,1.639-16.199,2.098   c-2.171,0.348-10.283,2.49-18.717,12.363c-8.876,10.344-18.074,28.729-22.821,61.766c1.032-0.192,2.092-0.305,3.178-0.305   C112.609,132.646,115.904,133.719,118.651,135.55z"/>
        <path d="M109.068,170.297c-5.027,0-9.625-1.844-13.178-4.878c-3.002,1.095-5.887,3.697-7.883,7.769   c-2.816,5.615-4.607,14.105-4.623,27.496c0,2.27,1.838,4.111,4.109,4.111c2.27,0,4.111-1.842,4.111-4.111   c-0.014-11.311,1.447-18.406,3.137-22.467v16.892v6.084v29.34c0,3.617,2.936,6.549,6.549,6.549c3.617,0,6.551-2.932,6.551-6.549   v-25.247h2.455v25.247c0,3.617,2.932,6.549,6.549,6.549c3.615,0,6.549-2.932,6.549-6.549v-29.34v-6.084v-16.89   c1.689,4.061,3.15,11.158,3.137,22.464c0,2.27,1.838,4.111,4.109,4.111s4.111-1.842,4.111-4.111   c-0.016-13.392-1.809-21.881-4.625-27.496c-1.994-4.071-4.879-6.674-7.883-7.768C118.691,168.453,114.096,170.297,109.068,170.297z   "/>
        <circle cx="109.068" cy="149.972" r="14.326"/>
    </g>
</svg>