<svg xmlns="http://www.w3.org/2000/svg" data-name="Layer 1" viewBox="0 0 48 60" x="0px" y="0px" fill="currentColor">
    <title>6-knight</title>
    <path d="M13.19,23.59h1a.71.71,0,0,0,.73-.69V16.67a.71.71,0,0,0-.73-.68h-1a.88.88,0,0,0-.86.9v5.8A.88.88,0,0,0,13.19,23.59Z"/>
    <path d="M33.85,16a.7.7,0,0,0-.72.68V22.9a.7.7,0,0,0,.72.69h1a.88.88,0,0,0,.86-.9v-5.8a.88.88,0,0,0-.86-.9Z"/>
    <polygon points="23.32 16.66 16.1 18.27 23.32 22.02 23.32 16.66"/>
    <path d="M24.15,15.15l8.1,1.8a8.26,8.26,0,0,0-16.5,0l8.1-1.8A.76.76,0,0,1,24.15,15.15Z"/>
    <path d="M24,30.09a8.27,8.27,0,0,0,8.26-8.26V19.62l-7.94,4.13a.72.72,0,0,1-.32.08.65.65,0,0,1-.31-.08l-8-4.13v2.21A8.27,8.27,0,0,0,24,30.09Z"/>
    <polygon points="31.9 18.27 24.68 16.66 24.68 22.02 31.9 18.27"/>
    <path d="M14.65,29.89a14.19,14.19,0,0,0-1.91.12c1.43,2.72,3.07,7.86,3.73,17.52a53,53,0,0,0,6.85.47V36.16L14.7,29.94S14.67,29.9,14.65,29.89Z"/>
    <path d="M33.35,29.89l-.05.05-8.62,6.22V48a53,53,0,0,0,6.85-.47c.66-9.66,2.3-14.8,3.73-17.52A14.19,14.19,0,0,0,33.35,29.89Z"/>
    <path d="M29.61,29.31a9.34,9.34,0,0,1-11.21,0,2.83,2.83,0,0,1-1.46.56L24,35l7.06-5.1A2.75,2.75,0,0,1,29.61,29.31Z"/>
    <path d="M8.8,32c-1.86,2-2.53,5.4-2.05,10.39a.06.06,0,0,1,0,0c.07.44.83,3.5,8.32,4.91-.7-9.77-2.44-14.62-3.75-16.95A6,6,0,0,0,8.8,32Z"/>
    <path d="M39.2,32a6,6,0,0,0-2.53-1.61c-1.31,2.34-3.05,7.19-3.75,16.95,7.49-1.41,8.25-4.47,8.32-4.91v0C41.73,37.36,41.06,34,39.2,32Z"/>
    <path d="M30.35,10.49a2.82,2.82,0,0,0,1-1.19c3,1,5.79-1.58,5.91-1.7a.69.69,0,0,0,.1-.87.7.7,0,0,0-.84-.26A2.47,2.47,0,0,1,35,6.4a4,4,0,0,0,1.26-1.53,6.19,6.19,0,0,0,0-4.43A.7.7,0,0,0,35.46,0a.68.68,0,0,0-.55.69,1.85,1.85,0,0,1-.62,1.23c-.8.72-2.28,1-4.28.76-4.71-.52-7.21,3.54-8.16,5.56A9.51,9.51,0,0,1,24,8,9.32,9.32,0,0,1,30.35,10.49Z"/>
</svg>