<svg xmlns:dc="http://purl.org/dc/elements/1.1/" 
    xmlns:cc="http://creativecommons.org/ns#" 
    xmlns:rdf="http://www.w3.org/1999/02/22-rdf-syntax-ns#" 
    xmlns:svg="http://www.w3.org/2000/svg" 
    xmlns="http://www.w3.org/2000/svg" 
    xmlns:sodipodi="http://sodipodi.sourceforge.net/DTD/sodipodi-0.dtd" 
    xmlns:inkscape="http://www.inkscape.org/namespaces/inkscape" version="1.1" x="0px" y="0px" viewBox="0 0 100 125">
    <g transform="translate(0,-952.36218)">
        <path style="color:currentColor;enable-background:accumulate;" d="m 26,977.36215 c -9.941131,0 -18.0000005,10.0589 -18.0000005,19.99996 0,9.94109 2.0588705,30.00009 12.0000005,30.00009 5.323459,0 16.110039,-12.3255 19.40625,-16.0001 l 21.1875,0 c 3.29621,3.6746 14.08279,16.0001 19.40625,16.0001 9.94113,0 12,-20.059 12,-30.00009 0,-9.94106 -8.05887,-19.99996 -18,-19.99996 -5.32346,0 -10.11004,0.3254 -13.40625,4 l -21.1875,0 c -3.296211,-3.6746 -8.082791,-4 -13.40625,-4 z m 48,9 c 1.65685,0 3,1.3431 3,3 0,1.6569 -1.34315,3 -3,3 -1.656851,0 -3,-1.3431 -3,-3 0,-1.6569 1.343149,-3 3,-3 z m -48.21875,1.0312 A 1.9997379,1.9912932 0 0 1 28,989.42465 l 0,3.9687 3.96875,0 a 1.9912932,1.9997379 0 0 1 2.03125,1.7813 1.9912932,1.9997379 0 0 1 -2.03125,2.21866 l -3.96875,0 0,3.96879 a 2,1.9915542 0 0 1 -4,0 l 0,-3.96879 -3.96875,0 a 1.9915542,2 0 1 1 0,-3.99996 l 3.96875,0 0,-3.9687 a 1.9997379,1.9912932 0 0 1 1.78125,-2.0313 z M 68,992.36215 c 1.65685,0 3,1.3431 3,2.99996 0,1.6569 -1.34315,3 -3,3 -1.656851,0 -3,-1.3431 -3,-3 0,-1.65686 1.343149,-2.99996 3,-2.99996 z m 12,0 c 1.65685,0 3,1.3431 3,2.99996 0,1.6569 -1.343151,3 -3,3 -1.656851,0 -3,-1.3431 -3,-3 0,-1.65686 1.343149,-2.99996 3,-2.99996 z m -6,5.99996 c 1.65685,0 3,1.3431 3,2.99999 0,1.6569 -1.34315,3 -3,3 -1.656851,0 -3,-1.3431 -3,-3 0,-1.65689 1.343149,-2.99999 3,-2.99999 z" fill="currentColor" stroke="none" marker="none" visibility="visible" display="inline" overflow="visible"/>
    </g>
</svg>