<svg xmlns="http://www.w3.org/2000/svg" 
    xmlns:xlink="http://www.w3.org/1999/xlink" version="1.1" x="0px" y="0px" viewBox="0 0 50 62.5" enable-background="new 0 0 50 50" xml:space="preserve" fill="currentColor">
    <g>
        <path d="M27.6014,22.9198l2.2542-1.0403c0.9973,0.438,2.3788,0.1205,2.3788,0.1205   c3.5226-0.6126,4.7483-2.5989,5.1505-3.608c0.1332-0.3342-0.0827-0.7296-0.4412-0.7604c-2.0711-0.1777-5.9799,2.123-7.414,3.0194   c-0.149,0.0931-0.2308,0.2426-0.2654,0.3998l-1.958,0.9037c-0.506-0.8227-1.5443-1.1837-2.4645-0.8012   c-1.9684,0.817-4.8383,1.6409-6.3943,0.192c0.0423-0.5728,0.1354-1.5395,0.0994-2.0286c-0.1887-2.5543-2.4123-4.472-4.9666-4.2834   s-4.472,2.4123-4.2834,4.9666l0.8125,11c0.1534,2.1063,2.0262,3.7667,4.251,3.5117c0.8136,2.8311,1.6264,7.476,0.0024,11.7828   c-0.3896,1.0337,0.1323,2.1875,1.166,2.5771c1.0355,0.3894,2.1877-0.1336,2.5771-1.166   c2.4309-6.4473,0.5642-13.2035-0.4791-16.0947c0.1401-0.5835,0.0787-0.2218,0.4989-5.9104   c1.7774,0.6195,4.3185,0.781,8.2512-0.8538C27.1719,24.5163,27.6339,23.7323,27.6014,22.9198z"/>
        <path d="M16.2344,8.4076l-1.9688-5.5313c0.5625-4.0313-3.9375-0.3124-3.9375-0.3124   c-6.25,0.7188-2.375,3.0938-2.375,3.0938l2.375,5.2188L16.2344,8.4076z"/>
        <polygon points="41.7344,27.9999 41.7344,26.9999 38.7344,26.9999 38.7344,27.9999 36.7344,27.9999    36.7344,26.9999 33.7344,26.9999 33.7344,27.9999 31.7344,27.9999 31.7344,26.9999 28.7344,26.9999 28.7344,27.9999    27.2344,27.9999 27.2344,48.9999 43.2344,48.9999 43.2344,27.9999  "/>
        <path d="M13.7344,13.9999c1.93,0,3.5-1.57,3.5-3.5c0-0.46-0.09-0.91-0.27-1.32l-6.44,2.69   C11.0444,13.1199,12.2944,13.9999,13.7344,13.9999z"/>
    </g>
</svg>