<svg xmlns="http://www.w3.org/2000/svg" data-name="Layer 1" viewBox="0 0 100 125" x="0px" y="0px" fill="currentColor">
    <title>Untitled-2-24</title>
    <path data-name="Compound Path" d="M83,3H17.05A12.87,12.87,0,0,0,4.18,15.87v72A9.1,9.1,0,0,0,13.29,97H86.71a9.1,9.1,0,0,0,9.11-9.1v-72A12.87,12.87,0,0,0,83,3ZM67.64,66.44h2.61V89.13H52.33V66.44h2.61A2.41,2.41,0,0,0,57.35,64V29.64h7.88V64A2.41,2.41,0,0,0,67.64,66.44Zm-35.15,0A2.41,2.41,0,0,0,34.9,64V29.64h7.75V64a2.41,2.41,0,0,0,2.41,2.41h2.61V89.13H29.89V66.44Zm-21,19v-52a3.74,3.74,0,0,1,3.74-3.74h5V64a2.41,2.41,0,0,0,2.41,2.41h2.6V89.13h-10A3.73,3.73,0,0,1,11.47,85.4Zm77.06,0a3.74,3.74,0,0,1-3.74,3.73H74.91V66.44h2.61A2.4,2.4,0,0,0,79.92,64V29.64h4.87a3.75,3.75,0,0,1,3.74,3.74Z"/>
</svg>