<svg xmlns="http://www.w3.org/2000/svg" 
    xmlns:xlink="http://www.w3.org/1999/xlink" version="1.1" x="0px" y="0px" viewBox="0 0 64 80" enable-background="new 0 0 64 64" xml:space="preserve" fill="currentColor">
    <g>
        <path d="M42.958,16.722l-0.001-0.003c-0.188-0.745-0.549-1.384-1.184-1.83c-0.257-0.18-0.3-0.348-0.224-0.651   c0.497-1.973,0.559-3.955-0.115-5.897c-1.179-3.389-3.622-5.47-6.962-6.585c-0.451-0.151-0.913-0.279-1.38-0.377   c-1.881-0.394-3.182,0.24-3.182,0.24C30.682,2.096,31.695,2.24,32,3.306c-2.036-0.929-4.097-1.127-6.34-0.381   c1.158,0.134,2.215,0.184,3.187,0.995c-1.462-0.025-2.754,0.192-3.953,0.867c0.253,0,0.514-0.04,0.755,0.012   c0.207,0.045,0.391,0.197,0.584,0.302c-0.004,0.052-0.004,0.059-0.009,0.111c-0.338,0.123-0.7,0.198-1.015,0.362   c-1.57,0.818-2.419,2.193-2.845,3.848c-0.417,1.624-0.25,3.238,0.241,4.824c0.081,0.262,0.062,0.408-0.185,0.569   c-0.704,0.459-1.113,1.134-1.302,1.948c0,0.001,0,0.002-0.001,0.003c-0.058,0.243-0.101,0.49-0.101,0.74v0.091   c0,0.283,0.042,0.563,0.127,0.832c0.196,0.625,0.444,1.228,0.942,1.683c0.47,0.429,1.013,0.775,1.505,1.181   c0.212,0.175,0.436,0.376,0.554,0.615c1.55,3.13,4.099,4.926,7.476,5.582c0.974,0.189,1.907-0.176,2.795-0.551   c2.501-1.059,4.489-2.681,5.598-5.237c0.048-0.112,0.138-0.237,0.242-0.29c1.298-0.652,2.245-1.588,2.684-2.944   c0.087-0.268,0.127-0.549,0.127-0.83v-0.044C43.066,17.3,43.029,17.008,42.958,16.722z M27.982,9.471l-1.102,2.124   c0,0,1.529,0.073,3.556-2.115c0.404-0.436,0.828-0.962,1.263-1.595l-0.242,1.599v0.001l-0.201,1.323c0,0,0.868,0.045,2.109-1.316   c0.477-0.522,1.008-1.252,1.566-2.271l-0.455,2.276l-0.227,1.137c0,0,0.961-0.416,1.92-1.13c2.6,1.05,3.35,3.24,3.531,4.834   c0.034,0.296,0.107,0.583,0.216,0.854h-1.258c-0.482-1.1-1.58-1.871-2.856-1.871c-1.153,0-2.161,0.63-2.701,1.564   c-0.298-0.2-0.655-0.317-1.04-0.317c-0.385,0-0.743,0.117-1.04,0.317c-0.539-0.933-1.547-1.564-2.701-1.564   c-1.276,0-2.374,0.771-2.856,1.871h-1.325c0.14-0.3,0.232-0.62,0.273-0.951C24.593,12.742,25.301,9.461,27.982,9.471z    M37.669,16.438c0,1.032-0.839,1.871-1.87,1.871c-1.031,0-1.87-0.839-1.87-1.871c0-1.031,0.839-1.87,1.87-1.87   C36.83,14.568,37.669,15.407,37.669,16.438z M30.188,16.438c0,1.032-0.839,1.871-1.87,1.871c-1.031,0-1.87-0.839-1.87-1.871   c0-1.031,0.839-1.87,1.87-1.87C29.35,14.568,30.188,15.407,30.188,16.438z M41.182,17.955c-0.203,0.79-0.735,1.353-1.441,1.667   c-0.807,0.36-1.198,0.962-1.576,1.727c-1.179,2.392-3.224,3.733-5.766,4.342c-0.399,0.095-0.885,0.016-1.288-0.114   c-2.584-0.83-4.546-2.365-5.559-4.975c-0.105-0.271-0.414-0.514-0.687-0.661c-0.674-0.366-1.323-0.745-1.737-1.418   c-0.441-0.719-0.376-1.539,0.169-2.085h1.903c0,1.719,1.398,3.117,3.117,3.117c1.719,0,3.117-1.398,3.117-3.117   c0-0.344,0.28-0.623,0.624-0.623c0.344,0,0.623,0.279,0.623,0.623c0,1.719,1.398,3.117,3.117,3.117   c1.719,0,3.117-1.398,3.117-3.117h1.904l0.002,0.002C41.236,16.927,41.32,17.421,41.182,17.955z"/>
        <path d="M18.347,34.785c6.461-0.07,10.652-0.116,13.656,1.721c3.243-1.96,7.901-1.811,11.405-1.699l0.256,0.008h4.552v-0.233   c0-5.749-9.521-6.091-9.521-6.091L32,31.286l-6.726-2.796c0,0-9.491,0.487-9.491,6.091v0.227   C16.672,34.803,17.52,34.794,18.347,34.785z"/>
        <path d="M47.258,49.37v-2.382c0-4.424,6.698-4.427,6.698,0v2.382C53.956,53.794,47.258,53.797,47.258,49.37z"/>
        <path d="M10.044,49.37v-2.382c0-4.424,6.698-4.427,6.698,0v2.382C16.742,53.794,10.044,53.797,10.044,49.37z"/>
        <path d="M47.189,43.232c0.916-0.807,2.131-1.251,3.419-1.251c0.07,0,0.139,0.002,0.209,0.004v-4.034   c0-0.811-0.637-1.447-1.447-1.447h-5.732c-3.677-0.116-8.858-0.347-11.637,2.084c-3.011-2.605-8.019-2.113-17.369-2.084   c-0.811,0-1.447,0.637-1.447,1.447v4.035c0.07-0.003,0.14-0.005,0.211-0.005c1.289,0,2.503,0.444,3.418,1.251   c1.044,0.92,1.618,2.254,1.618,3.756v2.382c0,1.503-0.575,2.837-1.619,3.756c-0.916,0.807-2.131,1.251-3.419,1.251   c-0.07,0-0.139-0.002-0.209-0.005v4.034c0,0.81,0.637,1.447,1.447,1.447c4.979,0,12.274,0.521,16.732,2.75   c0.202,0.087,0.405,0.145,0.637,0.145c0.232,0,0.434-0.058,0.637-0.145c4.458-2.229,11.753-2.75,16.732-2.75   c0.811,0,1.447-0.637,1.447-1.447v-4.034c-0.07,0.003-0.14,0.005-0.211,0.005c-1.289,0-2.503-0.444-3.418-1.251   c-1.044-0.92-1.618-2.254-1.618-3.756v-2.382C45.569,45.486,46.144,44.152,47.189,43.232z M33.013,60.112h-2.026V40.234h2.026   V60.112z"/>
    </g>
</svg>