<svg xmlns="http://www.w3.org/2000/svg" 
    xmlns:xlink="http://www.w3.org/1999/xlink" version="1.1" x="0px" y="0px" viewBox="0 0 66 82.5" enable-background="new 0 0 66 66" xml:space="preserve" fill="currentColor">
    <g>
        <path d="M21.051,23.241c1.318,1.557,3.114,3.276,5.416,4.719h9.075c-0.258-0.449-0.707-0.793-1.261-0.907   c-5.403-1.123-9.88-4.898-12.408-9.256C22.12,19.546,21.55,20.712,21.051,23.241z"/>
        <path d="M29.916,34.618c0.101-0.017,20.592-3.417,20.489-3.401l0.115-0.019v-2.283h-0.115c-16.968,0-8.062,0-25.027,0   c0.968,0.363,1.404,0.392,2.006,0.955h1.576v5.32H23.43v-0.888c-0.325-0.115-0.65-0.239-0.955-0.363v2.207h7.441V34.618z"/>
        <path d="M9.847,42.336c-2.149-0.487-3.821-1.968-4.642-3.85C2.403,70.492,3.369,59.453,3.16,61.841   c-0.162,1.567,0.974,2.98,2.55,3.143c1.677,0.153,2.987-1.054,3.143-2.55c0.174-1.832-0.63,6.638,1.7-17.92v-0.01l-0.697-2.168   H9.847z"/>
        <path d="M16.405,11.755c2.894,0.981,6.013-0.559,6.994-3.453c0.981-2.894-0.559-6.023-3.453-7.004   c-2.884-0.981-6.023,0.569-7.004,3.453C11.971,7.644,13.511,10.784,16.405,11.755z"/>
        <path d="M18.348,46.883c-0.038-0.119-2.609-8.113-2.445-7.604c0.461-0.62,0.837-1.406,1.013-2.187l1.213-5.321   c-8.186-5.149-6.782-11.921-6.706-12.265c0.344-1.547,1.882-2.522,3.42-2.168c1.528,0.344,2.493,1.834,2.187,3.362   c-0.038,0.22-0.306,2.512,2.484,4.977c0.023-0.1,1.406-6.175,1.318-5.789c0.701-3.076-1.228-6.165-4.318-6.858   c-3.085-0.707-6.152,1.223-6.858,4.318L5.739,34.541c-0.771,3.474,1.719,6.623,4.853,6.954c0.033,0.102,2.25,6.991,2.216,6.887   l1.758,14.07c0.196,1.656,1.774,2.72,3.19,2.484c1.576-0.191,2.684-1.624,2.493-3.19C18.32,46.374,18.489,47.304,18.348,46.883z"/>
        <path d="M14.632,18.264c-1.022-0.22-2.044,0.42-2.283,1.452c-1.81,8.281,10.566,14.166,13.106,14.166   c0.802,0,1.547-0.516,1.815-1.318c0.325-1.003-0.22-2.082-1.223-2.407c-4.53-1.511-10.771-4.979-9.963-9.629   C16.304,19.506,15.655,18.503,14.632,18.264z"/>
        <path d="M46.541,37.101V33.06l-4.52,0.76v3.281H28.343v24.995h1.91v-9.908h30.691v9.908h1.91V37.101H46.541z M60.945,49.114H30.254   V39.011h30.691V49.114z"/>
    </g>
</svg>